inDegrees=no
num_controls=7
num_derivatives=13
num_iterations=257
num_multipliers=7
num_parameters=0
num_slacks=7
num_states=26
objective=6.507787
objective_accelerations=0.567985
objective_balance=0.029456
objective_effort=0.538519
objective_height=5.302404
objective_ligament=0.069423
solver_duration=2188.570358
status=Solve_Succeeded
success=true
DataType=double
version=3
OpenSimVersion=4.4-2022-07-23-0e9fedc
endheader
time	/jointset/ground_pelvis/pelvis_tilt/value	/jointset/ground_pelvis/pelvis_tx/value	/jointset/ground_pelvis/pelvis_ty/value	/jointset/hip_r/hip_flexion_r/value	/jointset/hip_r/hip_adduction_r/value	/jointset/hip_r/hip_rotation_r/value	/jointset/back/lumbar_extension/value	/jointset/patellofemoral_r/patellar_flexion_r/value	/jointset/knee_r/knee_flexion_r/value	/jointset/knee_r/knee_adduction_r/value	/jointset/knee_r/knee_rotation_r/value	/jointset/ankle_r/ankle_angle_r/value	/jointset/subtalar_r/subtalar_angle_r/value	/jointset/ground_pelvis/pelvis_tilt/speed	/jointset/ground_pelvis/pelvis_tx/speed	/jointset/ground_pelvis/pelvis_ty/speed	/jointset/hip_r/hip_flexion_r/speed	/jointset/hip_r/hip_adduction_r/speed	/jointset/hip_r/hip_rotation_r/speed	/jointset/back/lumbar_extension/speed	/jointset/patellofemoral_r/patellar_flexion_r/speed	/jointset/knee_r/knee_flexion_r/speed	/jointset/knee_r/knee_adduction_r/speed	/jointset/knee_r/knee_rotation_r/speed	/jointset/ankle_r/ankle_angle_r/speed	/jointset/subtalar_r/subtalar_angle_r/speed	/forceset/tau_hip_flexion_r	/forceset/tau_hip_adduction_r	/forceset/tau_hip_rotation_r	/forceset/tau_knee_flexion_r	/forceset/tau_ankle_angle_r	/forceset/tau_subtalar_angle_r	/forceset/tau_lumbar_extension	lambda_cid13_p0	lambda_cid14_p0	lambda_cid14_p1	lambda_cid14_p2	lambda_cid14_p3	lambda_cid14_p4	lambda_cid14_p5	/jointset/ground_pelvis/pelvis_tilt/accel	/jointset/ground_pelvis/pelvis_tx/accel	/jointset/ground_pelvis/pelvis_ty/accel	/jointset/hip_r/hip_flexion_r/accel	/jointset/hip_r/hip_adduction_r/accel	/jointset/hip_r/hip_rotation_r/accel	/jointset/back/lumbar_extension/accel	/jointset/patellofemoral_r/patellar_flexion_r/accel	/jointset/knee_r/knee_flexion_r/accel	/jointset/knee_r/knee_adduction_r/accel	/jointset/knee_r/knee_rotation_r/accel	/jointset/ankle_r/ankle_angle_r/accel	/jointset/subtalar_r/subtalar_angle_r/accel	gamma_cid13_p0	gamma_cid14_p0	gamma_cid14_p1	gamma_cid14_p2	gamma_cid14_p3	gamma_cid14_p4	gamma_cid14_p5
0.5	-0.268574582561925	-0.03343622375237568	0.8273643003603945	0.9974584003724979	-0.2297134860609658	-0.1292237892143422	-0.3452250633690878	0.6979134923256951	0.6979134923256731	0.04079045689151647	0.1745325737919854	0.134481913747254	0.02210204931234193	-0.7170059622524195	-0.2741472157776078	-0.4537315800951897	2.202601215272276	0.003615866127734794	0.27531441795917	-0.582262947059583	1.67959595485636	1.679595954856498	-0.2811018513627229	2.202499557686085e-05	0.2715534940761061	0.06864153977383301	-0.1819534495506576	-0.03661039701589075	0.009836678821060778	-0.308568867636523	0.1554771319965023	-0.003531301429609086	0.2065295992330218	-31.45068136030407	7.828903131275979	4.274995497550226	-5.290681385246311	-6.043645446813392	-665.1580119612408	66.8229347344145	0.4298154268440071	0.6618894718567844	-0.3647266624577394	-1.485255637990258	0.01288975459858173	-0.5290075183463705	1.854343472645875	-1.1942788228972	-1.194278822897197	0.3868744507312251	0.002977587527791182	-0.2541371779838646	-0.0243599066772768	-1.308283503956097e-07	-2.003678109742748e-07	3.316447046541338e-07	-1.279166384736567e-06	9.985482384319788e-08	-3.078318544925303e-07	1.807578985650154e-07
0.51	-0.2757216223907794	-0.03614432694597718	0.8228098128765092	1.019406379981587	-0.2296777292833407	-0.1264958863176265	-0.3509548707812784	0.7146471631952205	0.7146471631952162	0.03800175349319857	0.174532854756926	0.1371838911532259	0.02278578341347901	-0.7122974156092649	-0.2674509671225788	-0.4570638867899033	2.186699230341758	0.003528237614400272	0.2702818840011632	-0.5636355310333324	1.666903827494748	1.666903827494773	-0.2765925151818294	1.959382798741996e-05	0.2687903804401531	0.06808254132958798	-0.1906830388562359	-0.03552511205044404	0.01043958022330698	-0.310870415548303	0.1540772992724929	-0.002835246147210219	0.2137597281085492	-30.48432071469338	7.134499467546505	4.367802299355923	-5.205068290070745	-5.698637906005398	-669.998756694345	66.88060955220666	0.5070429497380714	0.6768816426390439	-0.3022390127063375	-1.687017849451169	-0.02081727196144501	-0.4882251855104462	1.876391319409731	-1.341812899137273	-1.34181289915415	0.4899079706237031	-0.004291355880589464	-0.2951416978959021	-0.07518080736153308	-1.105604054770946e-07	-1.346849397871854e-07	4.882618327928735e-07	-8.17324601352187e-07	3.445558512850667e-08	-2.394068966220209e-07	1.895670568290447e-07
0.52	-0.2828184430198646	-0.03878478983696578	0.8182250510577311	1.041186470155598	-0.2296430944143811	-0.1238178785306871	-0.3564965139028476	0.7312468861498614	0.7312468861498732	0.03525953241046102	0.174532623832817	0.1398566887745394	0.02346322533136095	-0.7069621222986358	-0.2606191552550258	-0.4597864470737417	2.169023328256496	0.003391484394585993	0.2653353960038528	-0.5446300889352786	1.652806371879376	1.652806371879288	-0.2718053882467248	-8.035281873305435e-05	0.2657175371444051	0.06738310312280632	-0.1994126281618147	-0.03443982708499569	0.01104248162554368	-0.3131719634600826	0.1526774665484842	-0.002139190864809045	0.2209898569840758	-29.51125103567013	6.437115596883908	4.464153220386509	-5.124665365228776	-5.368319799698964	-674.8957704108116	67.01326046865226	0.5551647603389027	0.6890021143615872	-0.2427773802827019	-1.840039068939028	0.003064813302629745	-0.5117983262070624	1.929948687006496	-1.47534447364915	-1.475344473649151	0.4424326015734166	-0.01652550829841947	-0.31608310994283	-0.05244785918459833	-7.606516539350853e-08	-3.986948165433334e-09	8.530679815888291e-07	9.36847992944679e-08	-1.051160876833602e-07	-1.086648269899046e-07	2.469072597928438e-07
0.53	-0.2898590374629743	-0.04135629889424259	0.8136161237048063	1.062781399873734	-0.2296094279708545	-0.1211916536993042	-0.361846228143035	0.7476988429438618	0.7476988429438964	0.03256367365804966	0.1745325352094702	0.1424975194155676	0.02413384236624226	-0.7010605063988264	-0.2536621677584801	-0.461892821758877	2.149672115345715	0.003325901663291993	0.2599514303127179	-0.5252705667523975	1.637355405910323	1.637355405910353	-0.2672934169938823	3.405490017107356e-05	0.262402641918291	0.06670834381369826	-0.2077099162504807	-0.03386253780456647	0.01165352680503213	-0.3161091504776501	0.152139052808471	-0.001486468000228126	0.2278636518830207	-28.53205029375894	6.011274614693257	4.590895094265252	-5.051009345809149	-5.225817568609749	-679.8501048652259	67.2961018404101	0.6221007218948699	0.7020846482804839	-0.1786452482216886	-2.026234860194327	-0.01356468959008028	-0.54545734147947	1.945282836409287	-1.614398220794486	-1.614398220776927	0.4667170239539092	0.02122792179199991	-0.34611620894402	-0.07955185950562713	-4.802844112177126e-08	9.704824476859749e-08	1.123567625406268e-06	7.959662304046498e-07	-2.122316925915426e-07	-1.003111990572129e-08	3.058171634155491e-07
0.54	-0.2968377276036669	-0.04385763056035805	0.8089893170579116	1.084174102971153	-0.2295768563292893	-0.1186180208550156	-0.3670010813908974	0.7639894049657191	0.7639894049657781	0.02991516214553007	0.1745327514652713	0.1451038164083351	0.02479679942948615	-0.6945812618153007	-0.2465836770227563	-0.4633623058677196	2.128578004113064	0.003172524002211163	0.2548169985850723	-0.5056578904703019	1.620527417450822	1.620527417450968	-0.26233594026847	-1.937698863794019e-05	0.2588108074922439	0.06585110879532141	-0.2160072043391461	-0.03328524852413732	0.01226457198452193	-0.3190463374952176	0.1516006390684578	-0.0008337451356472917	0.2347374467819662	-27.54764579316908	5.579488009034417	4.718438469042701	-4.979585074795594	-5.076940136518393	-684.8990112499915	67.59899850469003	0.6706904970821679	0.7133027621972113	-0.1153992650241998	-2.188618733313342	-0.01449417265473865	-0.461891533509217	1.980579506849408	-1.750748971739018	-1.750748971739018	0.531533696087367	-0.05009342984104439	-0.3714709499294418	-0.08894300103835945	-2.713730881207964e-08	1.652650221332342e-07	1.289728157332581e-06	1.267314588836178e-06	-2.834384564147972e-07	5.307844138074872e-08	3.664637571289591e-07
